<?xml version="1.0" standalone="no"?><!DOCTYPE svg PUBLIC "-//W3C//DTD SVG 1.1//EN" "http://www.w3.org/Graphics/SVG/1.1/DTD/svg11.dtd"><svg t="1733387592210" class="icon" viewBox="0 0 1024 1024" version="1.1" xmlns="http://www.w3.org/2000/svg" p-id="4267" xmlns:xlink="http://www.w3.org/1999/xlink" width="200" height="200"><path d="M807.68 244.8c-72-84-200.512-69.024-271.104 15.68L512 289.984l-24.576-29.504c-70.592-84.704-199.104-99.68-271.136-15.68-42.624 49.76-56.704 100.384-52.64 150.88 4.16 51.712 27.52 105.856 64.768 160.256 70.272 102.72 184.448 198.56 283.584 268.992 99.168-70.4 213.312-166.272 283.584-268.992 37.216-54.4 60.64-108.544 64.768-160.256 4.064-50.496-10.016-101.12-52.64-150.848zM512 193.888c94.144-85.728 249.12-101.728 344.32 9.312 53.344 62.272 73.28 129.632 67.84 197.632-5.376 66.816-34.976 131.68-75.744 191.264-81.376 118.912-213.28 225.6-318.208 298.24l-18.208 12.608-18.24-12.608c-104.896-72.64-236.8-179.328-318.176-298.24-40.768-59.584-70.4-124.448-75.744-191.264-5.44-68 14.496-135.36 67.84-197.632C262.912 92.16 417.888 108.16 512 193.856z" fill="#8997B2" p-id="4268"></path></svg>