<?xml version="1.0" standalone="no"?><!DOCTYPE svg PUBLIC "-//W3C//DTD SVG 1.1//EN" "http://www.w3.org/Graphics/SVG/1.1/DTD/svg11.dtd"><svg t="1734406173387" class="icon" viewBox="0 0 1035 1024" version="1.1" xmlns="http://www.w3.org/2000/svg" p-id="5637" xmlns:xlink="http://www.w3.org/1999/xlink" width="202.1484375" height="200"><path d="M1035.401599 512c0 282.774267-231.783784 511.987819-517.7008 511.987819S0 794.774267 0 512 231.783784 0 517.700799 0 1035.401599 229.225733 1035.401599 512" fill="#75ACCA" p-id="5638"></path><path d="M793.336886 815.275219a64.365436 64.365436 0 0 1-64.706509 64.012181H340.342596a64.365436 64.365436 0 0 1-64.706509-64.012181V303.311762a64.353255 64.353255 0 0 1 64.706509-64h388.287781a64.365436 64.365436 0 0 1 64.706509 64z" fill="#221E1F" opacity=".2" p-id="5639"></path><path d="M793.336886 783.250856a64.365436 64.365436 0 0 1-64.706509 64.012182H340.342596a64.365436 64.365436 0 0 1-64.706509-64.012182V271.2874a64.341073 64.341073 0 0 1 64.706509-64h388.287781a64.353255 64.353255 0 0 1 64.706509 64z" fill="#4D5B70" p-id="5640"></path><path d="M340.354777 207.2874h48.529882v640h-48.529882z" fill="#DFDECF" p-id="5641"></path><path d="M570.457556 383.524933V239.08032H325.944423c-31.171679 0-56.435478 21.548534-56.435477 48.140084v545.717548c0 26.579368 25.263799 48.140084 56.435477 48.140084h413.795204c31.171679 0 56.423297-21.560716 56.423296-48.140084V431.677198h-169.318614c-31.159498 0-56.423297-21.560716-56.423296-48.152265" fill="#221E1F" opacity=".2" p-id="5642"></path><path d="M739.739627 206.970689h-413.795204c-31.171679 0-56.435478 21.560716-56.435477 48.152265v545.717548c0 26.60373 25.263799 48.152265 56.435477 48.152265h413.795204c31.171679 0 56.423297-21.548534 56.423296-48.152265v-545.717548c0-26.591549-25.251618-48.152265-56.423296-48.152265" fill="#DFDECF" p-id="5643"></path><path d="M348.577084 575.79292h368.517701v31.926913H348.577084z" fill="#221E1F" opacity=".2" p-id="5644"></path><path d="M348.577084 655.616292h368.517701v31.939094H348.577084z" fill="#221E1F" opacity=".2" p-id="5645"></path><path d="M348.577084 735.464027h368.517701v31.939094H348.577084z" fill="#221E1F" opacity=".2" p-id="5646"></path><path d="M583.02855 239.275219v125.539398a10.512372 10.512372 0 0 0 6.650932 9.671869 11.340693 11.340693 0 0 0 4.129425 0.779597 10.963076 10.963076 0 0 0 7.625429-3.05748l46.288542-44.912067 46.288542 44.912067a10.963076 10.963076 0 0 0 7.625428 3.05748 11.243243 11.243243 0 0 0 4.129425-0.779597 10.50019 10.50019 0 0 0 6.663114-9.671869V239.275219z" fill="#221E1F" opacity=".2" p-id="5647"></path><path d="M583.02855 207.275219v125.539398a10.512372 10.512372 0 0 0 6.650932 9.671869 11.340693 11.340693 0 0 0 4.129425 0.779597 10.963076 10.963076 0 0 0 7.625429-3.05748l46.288542-44.912067 46.288542 44.912067a10.963076 10.963076 0 0 0 7.625428 3.05748 11.243243 11.243243 0 0 0 4.129425-0.779597 10.50019 10.50019 0 0 0 6.663114-9.671869V207.275219z" fill="#BE595A" p-id="5648"></path><path d="M553.866768 524.254282a29.234869 29.234869 0 0 1-29.429768 29.113057H377.300343a29.234869 29.234869 0 0 1-29.429768-29.113057V378.737724a29.234869 29.234869 0 0 1 29.429768-29.113057h147.136657a29.234869 29.234869 0 0 1 29.429768 29.113057z" fill="#221E1F" opacity=".2" p-id="5649"></path><path d="M378.664636 524.254282a14.617434 14.617434 0 0 1-14.714883-14.544347V364.217739a14.617434 14.617434 0 0 1 14.714883-14.617434h147.136658a14.617434 14.617434 0 0 1 14.702703 14.617434v145.492196a14.617434 14.617434 0 0 1-14.702703 14.544347z" fill="#FFFFFF" p-id="5650"></path><path d="M525.801294 509.709935H378.664636V364.217739h147.136658z m0-174.629615H378.664636A29.234869 29.234869 0 0 0 349.234869 364.217739v145.492196a29.234869 29.234869 0 0 0 29.429767 29.100876h147.136658a29.234869 29.234869 0 0 0 29.429768-29.100876V364.217739a29.234869 29.234869 0 0 0-29.429768-29.113057" fill="#4D5B70" p-id="5651"></path></svg>