<?xml version="1.0" standalone="no"?><!DOCTYPE svg PUBLIC "-//W3C//DTD SVG 1.1//EN" "http://www.w3.org/Graphics/SVG/1.1/DTD/svg11.dtd"><svg t="1733474474309" class="icon" viewBox="0 0 1024 1024" version="1.1" xmlns="http://www.w3.org/2000/svg" p-id="12813" xmlns:xlink="http://www.w3.org/1999/xlink" width="200" height="200"><path d="M513 628.9c-83.6 0-162.2-32.6-221.3-91.7-59.1-59.1-91.7-137.7-91.7-221.3s32.6-162.2 91.7-221.3C350.8 35.5 429.4 3 513 3c83.6 0 162.2 32.6 221.3 91.7S826 232.3 826 315.9s-32.6 162.2-91.7 221.3c-59.1 59.1-137.7 91.7-221.3 91.7zM513 79c-130.7 0-237 106.3-237 237s106.3 237 237 237 237-106.3 237-237S643.7 79 513 79z" fill="#20862D" p-id="12814"></path><path d="M908 1023.7c-21 0-38-17-38-38 0-196.8-160.1-356.8-356.8-356.8S156.4 789 156.4 985.7c0 21-17 38-38 38s-38-17-38-38c0-58.4 11.4-115.1 34-168.5 21.8-51.5 53-97.8 92.7-137.6 39.7-39.7 86-70.9 137.6-92.7 53.4-22.6 110.1-34 168.5-34s115.1 11.4 168.5 34c51.5 21.8 97.8 53 137.6 92.7 39.7 39.7 70.9 86 92.7 137.6 22.6 53.4 34 110.1 34 168.5 0 21-17 38-38 38z" fill="#20862D" p-id="12815"></path></svg>